<?xml version="1.0" encoding="UTF-8"?>
<!DOCTYPE svg PUBLIC "-//W3C//DTD SVG 1.1//EN" "http://www.w3.org/Graphics/SVG/1.1/DTD/svg11.dtd">
<!-- Creator: CorelDRAW 2020 (64-Bit) -->
<svg xmlns="http://www.w3.org/2000/svg" xml:space="preserve" width="100px" height="23.622in" version="1.1" style="shape-rendering:geometricPrecision; text-rendering:geometricPrecision; image-rendering:optimizeQuality; fill-rule:evenodd; clip-rule:evenodd"
viewBox="0 0 23622.05 23622.05"
 xmlns:xlink="http://www.w3.org/1999/xlink"
 xmlns:xodm="http://www.corel.com/coreldraw/odm/2003">
 <defs>
  <style type="text/css">
   <![CDATA[
    .fil0 {fill:#1F2C51}
   ]]>
  </style>
 </defs>
 <g id="Layer_x0020_1">
  <metadata id="CorelCorpID_0Corel-Layer"/>
  <path class="fil0" d="M12571.58 21448.16l1.67 -10303.82c86.54,-594.38 218.16,-969.94 532.83,-1462.16 -576.7,-576.48 -833.28,-1382.75 -842.72,-2366.51l-137.65 0 0 2236.45c143.65,12.41 256.35,132.95 256.35,279.84 0,155.14 -125.75,280.89 -280.91,280.89 -155.14,0 -280.91,-125.75 -280.91,-280.89 0,-146.89 112.72,-267.39 256.37,-279.84l0 -2236.45 -137.67 0c-9.42,983.76 -266,1790.03 -842.68,2366.51 314.65,492.21 446.27,867.78 532.79,1462.16l1.71 10303.82 329.43 0 0 -8238.35c0,-68.02 55.68,-123.68 123.7,-123.68l34.51 0c68.07,0 123.7,55.66 123.7,123.68l0 8238.35 329.47 0zm-658.93 -14274.53l377.01 0 10095.31 0 0 1000.97 -1036.3 0 -0.98 -0.02c-4253.46,0 -7701.55,3448.09 -7701.55,7701.55l0 5572.03 0 168.53 -1074.61 0 -329.43 0 -281.91 0 -329.43 0 -1074.59 0 0 -168.53 0 -5572.03c0,-4253.46 -3448.09,-7701.55 -7701.55,-7701.55l-0.96 0.02 -1036.32 0 0 -1000.97 10095.31 0zm-8951.29 -1552.22l0 322.72 -26.68 0c-20.12,-84.66 -57.3,-149.67 -112.02,-194.8 -54.74,-45.15 -116.71,-67.59 -185.91,-67.59 -57.79,0 -110.89,16.59 -159.28,50.04 -48.18,33.44 -83.51,77.2 -105.93,131.22 -28.79,69.22 -43.03,146.15 -43.03,230.8 0,83.27 10.51,159.28 31.33,227.79 21.06,68.3 53.8,120.2 98.45,155.07 44.66,35.07 102.69,52.6 173.76,52.6 58.48,0 111.78,-12.85 160.43,-38.33 48.42,-25.71 99.63,-69.71 153.43,-132.37l0 79.98c-51.92,54.48 -106.19,94.01 -162.55,118.57 -56.34,24.54 -122.07,36.71 -197.4,36.71 -99.16,0 -187.07,-19.86 -263.78,-59.63 -76.95,-39.77 -136.36,-97.07 -177.97,-171.43 -41.86,-74.62 -62.68,-153.9 -62.68,-238.09 0,-88.63 23.13,-172.84 69.47,-252.33 46.28,-79.51 108.73,-141.26 187.54,-185.23 78.57,-43.74 162.08,-65.72 250.71,-65.72 65.27,0 134.02,14.27 206.5,42.56 42.09,16.59 68.77,24.8 80,24.8 14.71,0 27.33,-5.38 38.12,-16.17 10.74,-10.74 17.54,-27.83 20.8,-51.19l26.68 0zm19159.43 607.58l-352.22 0c4.2,84.87 26.89,152.02 68.06,201.35 31.57,37.89 69.45,56.83 113.87,56.83 27.61,0 52.41,-7.73 74.83,-22.91 22.44,-15.21 46.56,-42.78 72.06,-82.31l23.39 15.42c-34.66,70.39 -73.21,120.43 -115.09,149.69 -42.09,29.24 -90.72,43.95 -146.14,43.95 -94.95,0 -166.99,-36.48 -215.88,-109.43 -39.3,-58.71 -58.92,-131.67 -58.92,-218.91 0,-106.66 29,-191.53 86.75,-254.66 57.77,-63.17 125.62,-94.72 203.25,-94.72 64.78,0 121.14,26.42 168.83,79.49 47.71,53.09 73.44,131.9 77.2,236.21zm-168.4 -44.91c0,-73.44 -3.97,-123.93 -11.92,-151.31 -8.22,-27.36 -20.59,-48.16 -37.44,-62.21 -9.57,-8.16 -22.44,-12.37 -38.57,-12.37 -23.62,0 -43.03,11.69 -58.24,34.83 -26.89,40.7 -40.45,96.34 -40.45,167.2l0 23.85 186.62 0zm-665.85 -244.17l215.41 0 0 75.8 -122.07 0c22.44,22.23 37.89,42.56 46.77,60.8 10.98,24.56 16.36,50.28 16.36,77.19 0,45.59 -12.64,85.13 -38.12,118.57 -25.24,33.44 -59.63,59.63 -103.35,78.59 -43.52,18.94 -82.33,28.3 -116.01,28.3 -2.82,0 -30.16,-1.2 -82.07,-3.52 -20.85,0 -38.12,6.79 -51.92,20.35 -14.05,13.56 -21.08,29.92 -21.08,48.63 0,16.62 6.34,30.16 18.96,40.69 12.62,10.55 32.98,15.91 61.49,15.91l118.83 -1.41c96.36,0 162.52,10.53 198.77,31.59 51.69,29.24 77.65,74.13 77.65,134.93 0,38.83 -11.92,74.13 -35.77,105.72 -23.62,31.8 -54.97,55.21 -94.04,70.16 -58.93,22.47 -126.75,33.68 -203.68,33.68 -57.54,0 -110.16,-5.64 -157.87,-16.85 -47.48,-10.98 -81.61,-26.65 -102.21,-46.28 -20.57,-19.89 -30.86,-40.71 -30.86,-62.69 0,-20.82 7.94,-39.76 23.64,-56.36 15.65,-16.62 45.13,-30.63 87.91,-41.86 -59.39,-29.47 -89.1,-70.42 -89.1,-122.57 0,-31.78 12.2,-62.4 36.24,-92.13 24.11,-29.94 62.47,-55.89 114.83,-77.87 -61.02,-22.21 -105.24,-51.7 -132.58,-88.16 -27.36,-36.5 -40.94,-78.83 -40.94,-126.54 0,-62.68 25.5,-116.71 76.71,-162.52 50.98,-45.85 116.72,-68.75 196.93,-68.75 42.33,0 86.05,8.86 131.17,26.61zm-118.31 16.85c-26.44,0 -48.65,13.37 -66.89,40 -18.26,26.68 -27.38,81.86 -27.38,165.58 0,67.83 8.91,114.37 26.93,139.61 17.98,25.26 39.49,37.89 64.07,37.89 27.33,0 50.04,-12.62 68.28,-37.65 18.22,-25.03 27.34,-73.66 27.34,-145.91 0,-81.63 -10.25,-137.05 -30.84,-166.78 -14.52,-21.72 -35.09,-32.74 -61.51,-32.74zm-39.77 711.44c-46.52,0 -77.42,3.74 -92.6,11.7 -25.97,14.03 -39.06,32.97 -39.06,57.06 0,23.13 13.56,44.19 40.45,62.9 26.91,18.94 77.65,28.3 152.26,28.3 63.6,0 113.43,-8.41 149.9,-25.24 36.26,-16.61 54.5,-40.24 54.5,-70.63 0,-11.47 -3.52,-21.06 -10.3,-28.77 -12.41,-13.56 -30.88,-22.91 -55.89,-27.83 -25.05,-4.89 -91.45,-7.5 -199.26,-7.5zm-332.1 -439.2l-352.22 0c4.21,84.87 26.93,152.02 68.07,201.35 31.59,37.89 69.47,56.83 113.89,56.83 27.62,0 52.39,-7.73 74.83,-22.91 22.47,-15.21 46.56,-42.78 72.06,-82.31l23.37 15.42c-34.62,70.39 -73.21,120.43 -115.05,149.69 -42.09,29.24 -90.74,43.95 -146.17,43.95 -94.93,0 -167.01,-36.48 -215.85,-109.43 -39.3,-58.71 -58.94,-131.67 -58.94,-218.91 0,-106.66 29.02,-191.53 86.77,-254.66 57.77,-63.17 125.58,-94.72 203.23,-94.72 64.8,0 121.14,26.42 168.85,79.49 47.71,53.09 73.44,131.9 77.16,236.21zm-168.38 -44.91c0,-73.44 -3.97,-123.93 -11.92,-151.31 -8.2,-27.36 -20.59,-48.16 -37.44,-62.21 -9.57,-8.16 -22.42,-12.37 -38.57,-12.37 -23.62,0 -43.04,11.69 -58.26,34.83 -26.85,40.7 -40.45,96.34 -40.45,167.2l0 23.85 186.64 0zm-513.35 -541.61l0 797.02c0,45.57 5.4,74.81 15.95,87.67 10.72,12.65 31.54,19.91 62.64,21.79l0 23.83 -349.38 0 0 -23.83c29,-0.94 50.49,-9.14 64.54,-25.01 9.33,-10.55 14.05,-38.87 14.05,-84.44l0 -663.73c0,-45.62 -5.4,-74.62 -16.17,-87.46 -10.76,-12.88 -31.57,-20.12 -62.43,-21.98l0 -23.85 270.79 0zm-389.85 0l0 797.02c0,45.57 5.43,74.81 15.93,87.67 10.76,12.65 31.56,19.91 62.66,21.79l0 23.83 -349.4 0 0 -23.83c29,-0.94 50.51,-9.14 64.56,-25.01 9.33,-10.55 14.03,-38.87 14.03,-84.44l0 -663.73c0,-45.62 -5.38,-74.62 -16.15,-87.46 -10.74,-12.88 -31.59,-20.12 -62.44,-21.98l0 -23.85 270.8 0zm-650.61 270.83c55.44,0 107.1,14.24 155.05,43.01 47.71,28.77 84.19,69.69 108.98,122.55 24.8,52.83 37.18,110.63 37.18,173.52 0,90.74 -22.92,166.76 -68.98,227.77 -55.65,73.91 -132.35,110.86 -230.14,110.86 -96.08,0 -170.24,-33.64 -222.15,-101.25 -51.92,-67.34 -77.87,-145.7 -77.87,-234.56 0,-91.7 26.42,-171.41 79.49,-239.71 53.11,-68.07 125.81,-102.19 218.44,-102.19zm3.05 47.69c-23.17,0 -43.03,8.89 -59.65,26.42 -16.59,17.54 -27.59,52.15 -32.74,103.84 -5.38,51.92 -7.94,123.72 -7.94,215.85 0,48.91 3.29,94.48 9.59,137.05 4.91,32.29 15.65,57.06 32.04,73.92 16.4,16.83 35.11,25.26 55.89,25.26 20.57,0 37.65,-5.62 51.22,-17.09 17.79,-15.44 29.49,-37.18 35.56,-65.01 9.12,-43.29 13.56,-130.94 13.56,-262.88 0,-77.42 -4.2,-130.73 -12.85,-159.71 -8.63,-29.02 -21.53,-50.06 -38.36,-63.37 -11.7,-9.61 -27.12,-14.29 -46.3,-14.29zm-430.34 -339.57l0 322.72 -26.65 0c-20.12,-84.66 -57.28,-149.67 -112.02,-194.8 -54.72,-45.15 -116.71,-67.59 -185.91,-67.59 -57.79,0 -110.89,16.59 -159.28,50.04 -48.18,33.44 -83.51,77.2 -105.93,131.22 -28.77,69.22 -43.04,146.15 -43.04,230.8 0,83.27 10.51,159.28 31.33,227.79 21.06,68.3 53.8,120.2 98.48,155.07 44.63,35.07 102.66,52.6 173.74,52.6 58.48,0 111.78,-12.85 160.43,-38.33 48.42,-25.71 99.63,-69.71 153.43,-132.37l0 79.98c-51.92,54.48 -106.17,94.01 -162.52,118.57 -56.36,24.54 -122.1,36.71 -197.43,36.71 -99.14,0 -187.06,-19.86 -263.78,-59.63 -76.95,-39.77 -136.34,-97.07 -177.96,-171.43 -41.86,-74.62 -62.69,-153.9 -62.69,-238.09 0,-88.63 23.15,-172.84 69.48,-252.33 46.28,-79.51 108.73,-141.26 187.56,-185.23 78.57,-43.74 162.06,-65.72 250.69,-65.72 65.27,0 134.02,14.27 206.5,42.56 42.12,16.59 68.77,24.8 80,24.8 14.72,0 27.36,-5.38 38.12,-16.17 10.74,-10.74 17.54,-27.83 20.8,-51.19l26.65 0zm-1646.43 978.72l-206.97 -476.36c-31.12,-72.51 -54.06,-117.19 -68.77,-133.78 -14.97,-16.64 -32.74,-28.06 -53.78,-34.62l0 -23.85 340.96 0 0 23.85c-22.21,0.94 -38.12,5.41 -47.22,13.09 -9.14,7.96 -13.58,17.32 -13.58,28.53 0,17.32 11.21,51.92 34.15,103.62l109.69 252.8 74.83 -194.82c26.89,-69.71 40.24,-118.34 40.24,-145.67 0,-17.09 -5.64,-30.65 -16.62,-40.94 -11.23,-10.06 -31.09,-15.68 -59.39,-16.62l0 -23.85 212.82 0 0 23.85c-21.06,2.35 -38.14,10.53 -51.45,24.56 -13.35,14.05 -35.35,61.98 -66.42,143.84l-182.43 475.68c-46.07,118.57 -80.22,191.53 -102.66,218.91 -31.57,38.33 -70.86,57.51 -118.34,57.51 -37.89,0 -68.77,-10.98 -92.13,-32.72 -23.64,-21.79 -35.3,-47.97 -35.3,-78.59 0,-26.7 8.16,-48.63 24.3,-65.95 16.36,-17.56 36.24,-26.21 60.1,-26.21 22.92,0 41.41,7.26 55.44,22 13.8,14.71 21.01,37.65 21.5,68.51 0.45,17.54 2.35,28.77 5.59,33.66 4,5.15 9.35,7.73 16.38,7.73 10.76,0 22.47,-6.56 34.85,-19.86 18.24,-19.43 39.51,-63.41 64.31,-132.16l19.88 -52.15zm-585.39 -660.22l215.38 0 0 75.8 -122.07 0c22.47,22.23 37.91,42.56 46.77,60.8 11.02,24.56 16.36,50.28 16.36,77.19 0,45.59 -12.58,85.13 -38.1,118.57 -25.27,33.44 -59.61,59.63 -103.35,78.59 -43.53,18.94 -82.33,28.3 -116.01,28.3 -2.84,0 -30.18,-1.2 -82.07,-3.52 -20.82,0 -38.12,6.79 -51.92,20.35 -14.06,13.56 -21.06,29.92 -21.06,48.63 0,16.62 6.3,30.16 18.94,40.69 12.62,10.55 32.97,15.91 61.51,15.91l118.79 -1.41c96.36,0 162.55,10.53 198.77,31.59 51.72,29.24 77.67,74.13 77.67,134.93 0,38.83 -11.94,74.13 -35.77,105.72 -23.62,31.8 -54.97,55.21 -94.06,70.16 -58.93,22.47 -126.73,33.68 -203.64,33.68 -57.58,0 -110.18,-5.64 -157.89,-16.85 -47.48,-10.98 -81.6,-26.65 -102.21,-46.28 -20.57,-19.89 -30.86,-40.71 -30.86,-62.69 0,-20.82 7.94,-39.76 23.62,-56.36 15.68,-16.62 45.13,-30.63 87.93,-41.86 -59.39,-29.47 -89.1,-70.42 -89.1,-122.57 0,-31.78 12.17,-62.4 36.26,-92.13 24.09,-29.94 62.44,-55.89 114.81,-77.87 -61.02,-22.21 -105.2,-51.7 -132.59,-88.16 -27.36,-36.5 -40.94,-78.83 -40.94,-126.54 0,-62.68 25.5,-116.71 76.72,-162.52 50.98,-45.85 116.69,-68.75 196.91,-68.75 42.35,0 86.05,8.86 131.2,26.61zm-118.34 16.85c-26.42,0 -48.65,13.37 -66.87,40 -18.26,26.68 -27.38,81.86 -27.38,165.58 0,67.83 8.88,114.37 26.91,139.61 18,25.26 39.51,37.89 64.09,37.89 27.36,0 50.04,-12.62 68.28,-37.65 18.24,-25.03 27.36,-73.66 27.36,-145.91 0,-81.63 -10.28,-137.05 -30.88,-166.78 -14.48,-21.72 -35.09,-32.74 -61.51,-32.74zm-39.75 711.44c-46.54,0 -77.42,3.74 -92.62,11.7 -25.95,14.03 -39.04,32.97 -39.04,57.06 0,23.13 13.54,44.19 40.45,62.9 26.89,18.94 77.65,28.3 152.25,28.3 63.62,0 113.43,-8.41 149.91,-25.24 36.26,-16.61 54.5,-40.24 54.5,-70.63 0,-11.47 -3.5,-21.06 -10.29,-28.77 -12.39,-13.56 -30.88,-22.91 -55.91,-27.83 -25.01,-4.89 -91.43,-7.5 -199.24,-7.5zm-651.79 -754.9c55.42,0 107.11,14.24 155.05,43.01 47.71,28.77 84.19,69.69 108.98,122.55 24.82,52.83 37.16,110.63 37.16,173.52 0,90.74 -22.89,166.76 -68.98,227.77 -55.66,73.91 -132.37,110.86 -230.1,110.86 -96.13,0 -170.28,-33.64 -222.18,-101.25 -51.94,-67.34 -77.89,-145.7 -77.89,-234.56 0,-91.7 26.42,-171.41 79.51,-239.71 53.07,-68.07 125.83,-102.19 218.44,-102.19zm3.04 47.69c-23.15,0 -43.06,8.89 -59.65,26.42 -16.57,17.54 -27.59,52.15 -32.74,103.84 -5.36,51.92 -7.94,123.72 -7.94,215.85 0,48.91 3.29,94.48 9.61,137.05 4.91,32.29 15.65,57.06 32.04,73.92 16.36,16.83 35.07,25.26 55.85,25.26 20.61,0 37.7,-5.62 51.26,-17.09 17.75,-15.44 29.45,-37.18 35.56,-65.01 9.12,-43.29 13.54,-130.94 13.54,-262.88 0,-77.42 -4.21,-130.73 -12.84,-159.71 -8.67,-29.02 -21.5,-50.06 -38.35,-63.37 -11.7,-9.61 -27.15,-14.29 -46.32,-14.29zm-443.86 -318.52l0 797.02c0,45.57 5.38,74.81 15.89,87.67 10.79,12.65 31.59,19.91 62.69,21.79l0 23.83 -349.42 0 0 -23.83c29,-0.94 50.51,-9.14 64.56,-25.01 9.35,-10.55 14.03,-38.87 14.03,-84.44l0 -663.73c0,-45.62 -5.38,-74.62 -16.15,-87.46 -10.74,-12.88 -31.57,-20.12 -62.45,-21.98l0 -23.85 270.85 0zm-650.64 270.83c55.42,0 107.11,14.24 155.05,43.01 47.71,28.77 84.19,69.69 108.98,122.55 24.82,52.83 37.16,110.63 37.16,173.52 0,90.74 -22.89,166.76 -68.96,227.77 -55.68,73.91 -132.37,110.86 -230.12,110.86 -96.13,0 -170.28,-33.64 -222.17,-101.25 -51.94,-67.34 -77.87,-145.7 -77.87,-234.56 0,-91.7 26.39,-171.41 79.47,-239.71 53.11,-68.07 125.85,-102.19 218.46,-102.19zm3.04 47.69c-23.15,0 -43.04,8.89 -59.63,26.42 -16.59,17.54 -27.61,52.15 -32.76,103.84 -5.36,51.92 -7.94,123.72 -7.94,215.85 0,48.91 3.29,94.48 9.59,137.05 4.91,32.29 15.68,57.06 32.04,73.92 16.38,16.83 35.09,25.26 55.89,25.26 20.61,0 37.67,-5.62 51.23,-17.09 17.75,-15.44 29.47,-37.18 35.56,-65.01 9.1,-43.29 13.54,-130.94 13.54,-262.88 0,-77.42 -4.21,-130.73 -12.84,-159.71 -8.67,-29.02 -21.53,-50.06 -38.35,-63.37 -11.7,-9.61 -27.15,-14.29 -46.32,-14.29zm-823.22 -29.47l0 82.8c32.74,-35.32 64.31,-60.8 94.48,-76.95 30.2,-16.17 62.45,-24.07 97.07,-24.07 41.63,0 76.01,11.43 103.39,34.6 27.36,23.15 45.57,51.9 54.72,86.05 7.22,26.2 11,76.24 11,150.14l0 249.79c0,49.33 4.42,79.98 13.31,92.15 8.88,12.15 27.36,19.63 55.44,22.92l0 23.83 -324.15 0 0 -23.83c24.33,-3.29 41.63,-13.35 52.15,-30.18 7.26,-11.47 10.98,-39.77 10.98,-84.89l0 -285.33c0,-52.62 -2.09,-85.81 -6.04,-99.39 -4.23,-13.8 -11.04,-24.3 -20.84,-32.02 -9.8,-7.52 -20.57,-11.23 -32.51,-11.23 -39.04,0 -75.3,27.59 -108.98,82.8l0 345.17c0,47.92 4.44,78.33 13.37,90.96 8.86,12.88 25.48,20.82 49.78,24.11l0 23.83 -324.13 0 0 -23.83c26.89,-2.82 45.83,-11.49 57.28,-25.99 7.71,-10.04 11.47,-39.74 11.47,-89.08l0 -363.45c0,-48.87 -4.44,-79.51 -13.33,-91.43 -8.89,-12.15 -27.36,-19.88 -55.42,-23.62l0 -23.85 260.98 0zm-780.4 -289.04l0 372.31c35.07,-36.97 67.1,-63.15 96.34,-78.59 29,-15.2 59.39,-22.89 90.74,-22.89 40.22,0 74.37,11.43 102.88,34.13 28.34,22.94 47.26,49.78 56.64,80.69 9.35,30.63 14.03,82.78 14.03,155.73l0 250.03c0,49.1 4.42,79.74 13.54,91.92 9.14,12.15 27.59,19.86 55.23,23.15l0 23.83 -324.18 0 0 -23.83c22.68,-3.29 39.53,-12.43 51,-27.59 8.18,-11.94 12.15,-41.2 12.15,-87.48l0 -285.59c0,-52.81 -2.11,-86.02 -6.06,-99.61 -4.21,-13.56 -11,-23.83 -20.83,-31.55 -9.61,-7.52 -20.59,-11.23 -32.74,-11.23 -18.24,0 -35.79,6.32 -53.09,18.69 -17.06,12.62 -35.77,34.62 -55.66,66.2l0 343.08c0,45.83 3.5,74.57 10.3,86.04 8.41,15.68 26.18,25.27 52.83,29.03l0 23.83 -324.13 0 0 -23.83c26.89,-2.82 45.83,-11.49 57.3,-26.23 7.71,-10.06 11.44,-39.74 11.44,-88.84l0 -652.52c0,-48.86 -4.44,-79.51 -13.3,-91.43 -8.91,-12.15 -27.38,-19.88 -55.44,-23.6l0 -23.85 261 0zm-363.43 764.02l21.29 16.38c-30.2,56.83 -67.83,98.94 -112.98,126.52 -45.15,27.83 -93.07,41.63 -143.82,41.63 -85.62,0 -153.9,-32.04 -205.11,-96.34 -51.24,-64.33 -76.95,-141.72 -76.95,-232 0,-86.99 23.41,-163.7 69.94,-229.67 56.36,-79.72 133.78,-119.7 232.45,-119.7 66.42,0 119.04,16.57 158.13,50.04 39.04,33.21 58.69,70.39 58.69,111.31 0,25.97 -7.97,46.77 -23.62,62.43 -15.91,15.44 -36.5,23.15 -62,23.15 -27.12,0 -49.33,-8.87 -66.87,-26.65 -17.77,-17.77 -28.54,-49.57 -32.74,-95.17 -2.59,-28.79 -9.35,-48.91 -19.91,-60.35 -10.51,-11.44 -22.92,-17.06 -36.95,-17.06 -21.98,0 -40.69,11.7 -56.34,34.85 -23.64,35.07 -35.56,88.87 -35.56,161.14 0,60.08 9.61,117.61 28.77,172.59 19.43,54.97 45.57,95.63 79.04,122.54 25.26,19.65 54.95,29.47 89.33,29.47 22.47,0 43.74,-5.15 63.86,-15.67 20.12,-10.53 43.97,-30.18 71.33,-59.42zm-601.5 -177.5l-352.24 0c4.23,84.87 26.91,152.02 68.09,201.35 31.57,37.89 69.43,56.83 113.9,56.83 27.59,0 52.37,-7.73 74.81,-22.91 22.45,-15.21 46.56,-42.78 72.06,-82.31l23.39 15.42c-34.64,70.39 -73.21,120.43 -115.09,149.69 -42.07,29.24 -90.7,43.95 -146.15,43.95 -94.95,0 -166.99,-36.48 -215.87,-109.43 -39.28,-58.71 -58.93,-131.67 -58.93,-218.91 0,-106.66 29,-191.53 86.73,-254.66 57.8,-63.17 125.62,-94.72 203.28,-94.72 64.76,0 121.11,26.42 168.83,79.49 47.71,53.09 73.43,131.9 77.2,236.21zm-168.38 -44.91c0,-73.44 -3.99,-123.93 -11.94,-151.31 -8.2,-27.36 -20.59,-48.16 -37.42,-62.21 -9.61,-8.16 -22.47,-12.37 -38.59,-12.37 -23.62,0 -43.04,11.69 -58.24,34.83 -26.89,40.7 -40.45,96.34 -40.45,167.2l0 23.85 186.64 0zm-344.06 -541.61l0 251.16 -23.85 0c-14.74,-58.01 -30.86,-99.63 -48.63,-124.87 -17.77,-25.48 -42.33,-45.62 -73.43,-60.59 -17.32,-8.18 -47.71,-12.39 -91.22,-12.39l-70.18 0 0 718.44c0,47.93 2.58,77.87 7.73,89.78 5.15,11.94 15.42,22.49 30.41,31.35 15.19,9.14 35.78,13.59 61.98,13.59l30.39 0 0 23.83 -484.12 0 0 -23.83 30.65 0c26.65,0 48.16,-4.94 64.54,-14.52 11.7,-6.54 21.06,-17.54 27.83,-33.21 4.93,-10.98 7.5,-39.98 7.5,-86.98l0 -718.44 -67.34 0c-62.23,0 -107.36,13.33 -135.66,39.76 -39.53,36.95 -64.31,89.57 -74.83,158.09l-26.68 0 0 -251.16 834.91 0zm-1681.3 289.04l0 82.8c32.78,-35.32 64.35,-60.8 94.53,-76.95 30.15,-16.17 62.43,-24.07 97.04,-24.07 41.63,0 76.01,11.43 103.39,34.6 27.34,23.15 45.57,51.9 54.72,86.05 7.26,26.2 10.98,76.24 10.98,150.14l0 249.79c0,49.33 4.44,79.98 13.33,92.15 8.89,12.15 27.38,19.63 55.42,22.92l0 23.83 -324.13 0 0 -23.83c24.33,-3.29 41.6,-13.35 52.15,-30.18 7.26,-11.47 10.98,-39.77 10.98,-84.89l0 -285.33c0,-52.62 -2.09,-85.81 -6.07,-99.39 -4.19,-13.8 -10.98,-24.3 -20.8,-32.02 -9.82,-7.52 -20.59,-11.23 -32.52,-11.23 -39.04,0 -75.31,27.59 -109.01,82.8l0 345.17c0,47.92 4.51,78.33 13.37,90.96 8.86,12.88 25.5,20.82 49.8,24.11l0 23.83 -324.13 0 0 -23.83c26.89,-2.82 45.81,-11.49 57.3,-25.99 7.71,-10.04 11.44,-39.74 11.44,-89.08l0 -363.45c0,-48.87 -4.42,-79.51 -13.33,-91.43 -8.91,-12.15 -27.36,-19.88 -55.42,-23.62l0 -23.85 260.96 0zm-661.83 -18.22c55.44,0 107.1,14.24 155.07,43.01 47.69,28.77 84.17,69.69 108.98,122.55 24.78,52.83 37.18,110.63 37.18,173.52 0,90.74 -22.94,166.76 -69,227.77 -55.65,73.91 -132.35,110.86 -230.14,110.86 -96.08,0 -170.23,-33.64 -222.15,-101.25 -51.92,-67.34 -77.87,-145.7 -77.87,-234.56 0,-91.7 26.42,-171.41 79.49,-239.71 53.12,-68.07 125.81,-102.19 218.44,-102.19zm3.05 47.69c-23.15,0 -43.03,8.89 -59.65,26.42 -16.59,17.54 -27.59,52.15 -32.74,103.84 -5.38,51.92 -7.94,123.72 -7.94,215.85 0,48.91 3.29,94.48 9.59,137.05 4.91,32.29 15.68,57.06 32.06,73.92 16.38,16.83 35.09,25.26 55.87,25.26 20.57,0 37.65,-5.62 51.22,-17.09 17.79,-15.44 29.49,-37.18 35.56,-65.01 9.1,-43.29 13.58,-130.94 13.58,-262.88 0,-77.42 -4.23,-130.73 -12.88,-159.71 -8.65,-29.02 -21.53,-50.06 -38.36,-63.37 -11.7,-9.61 -27.12,-14.29 -46.3,-14.29zm-541.61 -339.57c29.67,0 54.72,10.3 75.28,31.09 20.57,20.82 30.86,45.83 30.86,75.07 0,29.47 -10.3,54.27 -31.09,74.85 -20.82,20.57 -45.85,30.84 -75.05,30.84 -29.49,0 -54.27,-10.28 -74.87,-30.84 -20.57,-20.59 -30.86,-45.38 -30.86,-74.85 0,-29.24 10.3,-54.25 30.86,-75.07 20.61,-20.8 45.38,-31.09 74.87,-31.09zm96.32 310.1l0 507.97c0,45.57 5.4,74.81 15.91,87.67 10.76,12.65 31.57,19.91 62.68,21.79l0 23.83 -349.42 0 0 -23.83c29,-0.94 50.53,-9.14 64.56,-25.01 9.35,-10.55 14.03,-38.87 14.03,-84.44l0 -374.64c0,-45.85 -5.4,-74.85 -16.15,-87.71 -10.74,-12.64 -31.59,-19.88 -62.44,-21.76l0 -23.85 270.83 0zm-463.04 -235.74l0 235.74 151.55 0 0 67.36 -151.55 0 0 395.91c0,37.23 1.62,61.04 5.13,71.83 3.29,10.74 9.35,19.41 18,25.97 8.67,6.77 16.61,10.06 23.87,10.06 29.69,0 57.5,-22.49 83.93,-67.36l20.61 14.95c-36.97,87.22 -97.07,130.96 -180.08,130.96 -40.7,0 -75.09,-11.21 -103.13,-33.89 -28.09,-22.7 -46.07,-47.94 -53.8,-75.78 -4.46,-15.7 -6.77,-57.79 -6.77,-126.3l0 -346.35 -84.21 0 0 -24.09c57.77,-40.7 106.87,-83.5 147.57,-128.37 40.45,-44.94 75.99,-95.21 106.17,-150.63l22.7 0zm-601.99 781.57c-78.12,69.24 -148.49,103.84 -210.47,103.84 -36.75,0 -67.15,-11.92 -91.47,-36.01 -24.05,-23.83 -36.24,-54.01 -36.24,-90.04 0,-48.87 21.06,-92.84 63.13,-131.93 42.12,-39.02 133.8,-90.94 275.06,-155.73l0 -64.31c0,-48.18 -2.56,-78.59 -7.96,-91.21 -5.15,-12.39 -15.19,-23.39 -29.92,-32.74 -14.74,-9.35 -31.35,-14.03 -49.59,-14.03 -29.94,0 -54.5,6.56 -73.66,19.88 -11.94,8.2 -17.79,17.77 -17.79,28.75 0,9.61 6.32,21.29 19.18,35.56 17.32,19.67 25.97,38.61 25.97,56.83 0,22.23 -8.2,41.41 -25.03,57.06 -16.62,15.66 -38.34,23.64 -65.25,23.64 -28.77,0 -52.86,-8.67 -72.27,-25.99 -19.39,-17.3 -29.24,-37.65 -29.24,-60.8 0,-32.96 13.09,-64.29 39.08,-94.23 26.19,-29.73 62.43,-52.62 108.96,-68.77 46.77,-15.93 95.21,-23.83 145.46,-23.83 60.8,0 108.98,12.83 144.29,38.55 35.56,25.74 58.5,53.56 69,83.74 6.32,19.18 9.57,63.13 9.57,131.9l0 248.12c0,29 1.22,47.48 3.52,54.95 2.35,7.5 5.62,13.11 10.27,16.85 4.7,3.52 9.85,5.38 15.7,5.38 12.15,0 24.33,-8.18 36.95,-24.56l20.59 15.91c-22.94,33.92 -46.54,58.71 -71.09,73.92 -24.35,15.42 -52.15,23.13 -83.27,23.13 -36.48,0 -65.24,-8.63 -85.81,-25.71 -20.57,-17.3 -32.98,-43.27 -37.65,-78.13zm0 -50.49l0 -213.31c-55.19,32.53 -96.34,67.13 -123.48,104.09 -17.77,24.54 -26.67,49.57 -26.67,74.58 0,21.06 7.47,39.55 22.68,55.44 11.49,12.39 27.35,18.47 47.94,18.47 22.94,0 49.35,-13.09 79.53,-39.28zm-590.05 -805.45c29.71,0 54.72,10.3 75.28,31.09 20.61,20.82 30.88,45.83 30.88,75.07 0,29.47 -10.27,54.27 -31.12,74.85 -20.8,20.57 -45.83,30.84 -75.05,30.84 -29.45,0 -54.25,-10.28 -74.85,-30.84 -20.59,-20.59 -30.86,-45.38 -30.86,-74.85 0,-29.24 10.27,-54.25 30.86,-75.07 20.61,-20.8 45.4,-31.09 74.85,-31.09zm96.34 310.1l0 507.97c0,45.57 5.38,74.81 15.93,87.67 10.72,12.65 31.55,19.91 62.66,21.79l0 23.83 -349.4 0 0 -23.83c29,-0.94 50.53,-9.14 64.54,-25.01 9.35,-10.55 14.06,-38.87 14.06,-84.44l0 -374.64c0,-45.85 -5.41,-74.85 -16.15,-87.71 -10.79,-12.64 -31.59,-19.88 -62.45,-21.76l0 -23.85 270.81 0zm-660.89 659.5l-217.05 -496.72c-25.97,-60.35 -46.3,-98.71 -61.04,-114.81 -10.53,-11.94 -25.97,-19.91 -46.56,-24.11l0 -23.85 340.51 0 0 23.85c-21.27,0 -36.01,3.97 -43.72,11.7 -11,10.3 -16.38,22.23 -16.38,36.01 0,17.06 10.08,49.12 29.94,96.13l105.93 240.42 83.95 -207.44c24.11,-59.89 36.26,-102.21 36.26,-126.99 0,-14.29 -5.15,-25.97 -15.42,-35.07 -10.3,-8.93 -28.3,-13.82 -54.5,-14.76l0 -23.85 209.08 0 0 23.85c-20.12,2.82 -36.5,10.3 -49.35,22.9 -12.62,12.43 -31.8,49.14 -57.51,109.94l-212.59 502.8 -31.57 0zm-665.14 -283.45l-325.31 0 -40.45 90.75c-12.85,30.41 -19.2,55.68 -19.2,75.54 0,26.44 10.53,45.85 31.35,58.45 12.39,7.26 42.8,12.88 91.21,16.64l0 23.83 -308.94 0 0 -23.83c33.21,-5.17 60.8,-19.2 82.07,-41.86 21.51,-22.94 48.18,-70.18 79.54,-141.74l332.1 -741.13 13.09 0 335.11 761.71c32.07,72.96 58.26,119.04 78.83,138.01 15.65,14.5 37.42,22.66 65.95,25.01l0 23.83 -449.5 0 0 -23.83 18.47 0c36.01,0 61.51,-5.17 76.01,-15.44 10.06,-7.26 14.97,-18 14.97,-31.8 0,-8.41 -1.17,-17.08 -3.95,-25.97 -0.96,-3.97 -7.73,-21.51 -20.61,-52.15l-50.74 -116.01zm-22 -50.51l-138.67 -316.89 -141.94 316.89 280.61 0zm-924.69 -614.59l0 797.02c0,45.57 5.36,74.81 15.91,87.67 10.74,12.65 31.56,19.91 62.64,21.79l0 23.83 -349.38 0 0 -23.83c29,-0.94 50.53,-9.14 64.56,-25.01 9.33,-10.55 14.03,-38.87 14.03,-84.44l0 -663.73c0,-45.62 -5.4,-74.62 -16.13,-87.46 -10.78,-12.88 -31.59,-20.12 -62.47,-21.98l0 -23.85 270.83 0zm-487.6 -21.06c29.69,0 54.74,10.3 75.31,31.09 20.56,20.82 30.86,45.83 30.86,75.07 0,29.47 -10.3,54.27 -31.12,74.85 -20.8,20.57 -45.83,30.84 -75.05,30.84 -29.47,0 -54.24,-10.28 -74.85,-30.84 -20.57,-20.59 -30.86,-45.38 -30.86,-74.85 0,-29.24 10.3,-54.25 30.86,-75.07 20.61,-20.8 45.38,-31.09 74.85,-31.09zm96.32 310.1l0 507.97c0,45.57 5.43,74.81 15.91,87.67 10.78,12.65 31.59,19.91 62.68,21.79l0 23.83 -349.4 0 0 -23.83c29,-0.94 50.53,-9.14 64.56,-25.01 9.35,-10.55 14.01,-38.87 14.01,-84.44l0 -374.64c0,-45.85 -5.38,-74.85 -16.13,-87.71 -10.74,-12.64 -31.59,-19.88 -62.44,-21.76l0 -23.85 270.8 0zm-660.89 659.5l-217.03 -496.72c-25.97,-60.35 -46.32,-98.71 -61.04,-114.81 -10.53,-11.94 -25.95,-19.91 -46.56,-24.11l0 -23.85 340.52 0 0 23.85c-21.27,0 -36.01,3.97 -43.72,11.7 -11,10.3 -16.38,22.23 -16.38,36.01 0,17.06 10.08,49.12 29.92,96.13l105.93 240.42 83.98 -207.44c24.11,-59.89 36.24,-102.21 36.24,-126.99 0,-14.29 -5.13,-25.97 -15.42,-35.07 -10.3,-8.93 -28.3,-13.82 -54.5,-14.76l0 -23.85 209.08 0 0 23.85c-20.12,2.82 -36.48,10.3 -49.35,22.9 -12.6,12.43 -31.8,49.14 -57.52,109.94l-212.59 502.8 -31.56 0zm-526.9 -969.6c29.69,0 54.74,10.3 75.28,31.09 20.59,20.82 30.88,45.83 30.88,75.07 0,29.47 -10.3,54.27 -31.12,74.85 -20.8,20.57 -45.83,30.84 -75.05,30.84 -29.47,0 -54.24,-10.28 -74.85,-30.84 -20.57,-20.59 -30.86,-45.38 -30.86,-74.85 0,-29.24 10.3,-54.25 30.86,-75.07 20.61,-20.8 45.38,-31.09 74.85,-31.09zm96.32 310.1l0 507.97c0,45.57 5.41,74.81 15.91,87.67 10.78,12.65 31.59,19.91 62.68,21.79l0 23.83 -349.38 0 0 -23.83c28.98,-0.94 50.51,-9.14 64.54,-25.01 9.35,-10.55 14.01,-38.87 14.01,-84.44l0 -374.64c0,-45.85 -5.36,-74.85 -16.13,-87.71 -10.74,-12.64 -31.59,-19.88 -62.43,-21.76l0 -23.85 270.78 0z"/>
 </g>
</svg>
